<?xml version="1.0" encoding="utf-8"?>
<!-- Generator: Adobe Illustrator 18.1.0, SVG Export Plug-In . SVG Version: 6.00 Build 0)  -->
<svg version="1.1" id="Calque_1" xmlns="http://www.w3.org/2000/svg" xmlns:xlink="http://www.w3.org/1999/xlink" x="0px" y="0px"
	 viewBox="0 0 300 100" enable-background="new 0 0 300 100" xml:space="preserve">
<g>
	<rect x="7.6" y="28.4" fill="#C4C4C4" width="284.6" height="38.4"/>
	<g>
		<g>
			<path d="M289.4,25.3H9.6c-3.1,0-5.7,2.6-5.7,5.7v32.7c0,3.1,2.6,5.7,5.7,5.7h279.9c3.1,0,5.7-2.6,5.7-5.7V31
				C295.1,27.9,292.6,25.3,289.4,25.3z M41.5,32.9l-0.8,0.8l-4.6,31.6h-7.3l-2.6-19.8l-3.3,19.8h-7.2l-4.5-31.6l-0.8-0.8V30h9.9v2.9
				l-0.8,0.8L20.8,51l3-18.1V30h6.8v2.9L33.4,51l1.4-17.3L34,32.9V30h7.5V32.9z M54.2,32.9l-0.8,0.8v27.9l0.8,0.8v2.9h-9.9v-2.9
				l0.8-0.8V33.7l-0.8-0.8V30h9.9V32.9z M79.4,65.3H69.2v-2.9l0.8-0.8c-1.1-11-2.8-12.9-3.3-12.9c-0.1,0-0.2,0-0.3,0v12.9l0.8,0.8
				v2.9h-9.9v-2.9l0.8-0.8V33.7l-0.8-0.8V30h9.9v2.9l-0.8,0.8v9.5l4.8-10.3V30h7.3v2.9l-1.2,0.8l-4.3,9.2c1.7,1.9,4.5,6.4,5.6,18.7
				l0.9,0.8V65.3z M91.7,32.9l-0.8,0.8v27.9l0.8,0.8v2.9h-9.9v-2.9l0.8-0.8V33.7l-0.8-0.8V30h9.9V32.9z M215.1,47.6l-0.8,0.8v16.9
				h-3.5c-0.4-0.5-0.8-1-1.2-1.5c-2,1.7-4.4,2-6.3,2c-2.8,0-5.4-0.9-7.2-3.7c-0.8-1.2-1.3-2.8-1.4-4.7c-0.4-6.3-0.5-15.5,0.3-21.9
				c0.5-3.6,3.3-6.2,8.1-6.2c2.1,0,4.3,0.2,5.7,1.5l0.5-0.9h4.1V42h-6.3v-5c0-1.6-0.6-2.4-2.1-2.4c-1.4,0-2.3,0.7-2.3,3.1v20.6
				c0,1.8,1,2.1,1.6,2.1c0.6,0,1.8-0.5,2.3-1.1V48.4l-0.8-0.7v-1.8h9.3V47.6z M239.2,65.3h-9.9v-2.9l0.8-0.8l-0.4-5.4h-5.1l-0.6,5.4
				l0.8,0.8v2.9h-7.5v-2.9l0.8-0.8l3.3-27.9l-0.6-0.8V30h15.2v2.9l-0.8,0.8l3.3,27.9l0.8,0.8V65.3z M269.5,32.9l-0.8,0.8v27.9
				l0.8,0.8v2.9h-9.6v-2.9l0.8-0.8v-20l-4.9,22.3h-3L248,41.6v20l0.8,0.8v2.9h-7.1v-2.9l0.8-0.8V33.7l-0.8-0.8V30h10.1l3.7,14.6
				l3.8-14.6h10.1V32.9z M290.2,38.2h-5.3v-3.9h-3.6v10.6h2.8v-1.7h3.8v7.9H284v-1.7h-2.8v11.8h3.6v-5.2h5.1v9.4h-17.6v-2.9l0.8-0.8
				V33.7l-0.8-0.8V30h17.8V38.2z"/>
			<polygon points="226.5,35.5 225,51.2 229.3,51.2 227.9,35.5 			"/>
			<path d="M82.2,25.6c0,0,7.8-8,19.7-13.1s21.4-4.5,26.8-1.6c5.4,2.9,12.3,8.5,9.2,17.4C134.9,37.2,82.2,25.6,82.2,25.6z"/>
			<path d="M84,66.8c0,0,3.3,13.8,15,13.3c0,0-5.7-11.9-0.9-16L84,66.8z"/>
			<path d="M106.6,66.8c0,0,10.2,25.5,36.4,21c24.3-4.2,43.1-18,56,3.9c0,0,11.2-10.7,4.2-24.2L106.6,66.8z"/>
			<path d="M154.2,25.8c0,0,3.4-6.2,5.3-7.9c1.9-1.7,6.5,1.3,8.3,5.8c1.7,4.4-0.8,3.2-0.8,3.2L154.2,25.8z"/>
			<path d="M92.5,46.4c0,0-6.3,4.9-7.8,20.3h11.1L92.5,46.4z"/>
		</g>
		<g>
			<path fill="none" d="M174.6,58c-0.7,1-1.3,2-2,3c-0.9,1.4-1.8,2.6-2.6,3.6c-0.4,0.5-0.7,0.9-1,1.2c2.6-0.8,5.3-1.4,8.2-1.7
				c-0.9-1-1.5-2.1-1.9-3.3C174.9,60,174.7,59,174.6,58z"/>
			<path fill="none" d="M130.9,51c0.4,0,0.9,0,1.4-0.2c1-0.3,1.9-1,2.7-1.9c0.8-0.9,1.6-2,2.1-3.2c0.5-1,0.8-2,1.1-2.8
				c0.3-0.9,0.4-1.6,0.4-2.2c-0.1,0-0.1,0-0.2,0c-0.1,0-0.1,0-0.2,0c-1.1,0-2.2,0.3-3.4,1.1c-1.2,0.8-2.3,1.8-3.4,3.2
				c-1.1,1.4-2.1,2.9-3,4.6l0,0c0.4,0.2,0.9,0.5,1.3,0.9C130.1,50.8,130.5,50.9,130.9,51z"/>
			<path fill="none" d="M191.2,50.5c0.5-1.4,0.8-2.7,0.8-4.1c0-1-0.1-1.9-0.5-2.7c-0.3-0.8-0.9-1.6-1.6-2.2
				c-0.1-0.1-0.1-0.1-0.2-0.2c-0.1-0.1-0.1-0.1-0.2-0.1c-1.3,0.7-2.6,1.8-3.8,3.2c-1.8,2.1-3.3,4.4-4.5,7.1c-1.2,2.7-1.9,5.3-2,7.8
				c-0.1,1.7,0,2.9,0.2,3.6c0.5,0.1,1,0,1.6-0.2c0.6-0.2,1.3-0.6,2-1c2-1.4,3.9-3.3,5.5-5.9c0.2-0.3,0.4-0.6,0.6-1.1
				c0-0.1,0.1-0.1,0.1-0.2C190.1,53.3,190.7,51.9,191.2,50.5z"/>
			<path fill="#CC0A39" d="M81.9,32.9v-1c-0.3,0.3-0.5,0.7-0.8,1c-1.1,1.5-1.9,3-2.5,4.4c-0.6,1.5-1,2.9-1.1,4.2
				c-0.1,1.4,0.1,2.7,0.6,3.9c0.1,0.3,0.2,0.5,0.4,0.8c0.1,0.3,0.3,0.5,0.5,0.8c0.5,0.7,1,1.3,1.6,1.7c0.6,0.5,1.2,0.8,1.7,0.9
				c0.5,0.1,0.8-0.1,0.8-0.5c0.1-0.4-0.1-0.9-0.6-1.6c0,0-0.1-0.1-0.1-0.2c-0.5-1.2-0.5-2.7,0.1-4.5c0,0,0,0,0,0v-9.1L81.9,32.9z"/>
			<path fill="#CC0A39" d="M189.3,64.8c0.4-0.4,0.8-0.7,1.2-1.1c1-1.1,1.9-2.2,2.7-3.5c0.3-0.5,0.6-1,0.8-1.4c0.8-1.4,1.5-2.9,2-4.3
				c0.5-1.5,0.8-3,0.8-4.5c0.1-1.6-0.3-3.2-1-4.8c-0.7-1.6-1.8-3.2-3.5-4.8c0.2,0,0.5,0,0.7,0c0.2,0,0.4,0,0.6,0.1
				c0.2,0,0.3,0.1,0.5,0.2c0.1,0,0.1,0,0.1,0.1c0.1,0.1,0.2,0.1,0.2,0.1c0.7,0.5,1.3,0.8,1.7,0.9c0.5,0.1,0.8-0.1,0.9-0.5
				c0.1-0.4-0.1-1-0.5-1.6s-0.9-1.2-1.6-1.7c-0.9-0.7-1.8-1.3-2.8-1.7c-0.8-0.4-1.6-0.6-2.5-0.6c-1.4-0.1-2.9,0.3-4.3,1.2
				c-1.4,0.8-2.8,2-4.1,3.4c-1.9,2.2-3.4,4.6-4.7,7.4c-0.6,1.4-1.1,2.8-1.5,4.2c-0.1,0.3-0.1,0.5-0.2,0.8c-1.1,1.4-2.2,2.8-3.3,4
				c-1.5,1.7-2.9,3.1-4.2,4.3c0.4-1.8,1-3.7,1.8-5.8c1.1-2.9,2.3-5.7,3.5-8.3c1.3-2.6,2.4-4.5,3.4-5.8c0.2-0.3,0.2-0.7-0.1-1.3
				c-0.3-0.6-0.7-1.2-1.4-1.8c-1.1-1-2-1.4-2.7-1.4h-8.7c0.1-0.9-0.2-1.4-1-1.5c-0.8-0.1-1.2,0.3-1.3,1c-0.5,2.2-1,4.1-1.6,5.7
				c-0.3,0.8-0.6,1.6-1,2.4c-1.3,3.1-2.8,6.2-4.7,9.2c-1.8,3-3.9,5.5-6.4,7.6c0.4-1.8,1-3.7,1.8-5.8c0.2-0.4,0.3-0.9,0.5-1.3
				c1.3-3.5,3-7.1,4.8-10.8c1.9-3.8,3.8-7.3,5.8-10.5c1.4,0,2.8,0,4.2,0c4.2,0.1,7.4,0.3,9.5,0.5c0.5,0,0.8-0.1,0.8-0.6
				c0-0.4-0.2-0.9-0.6-1.6c-0.5-0.7-1-1.2-1.6-1.7c-0.6-0.5-1.2-0.8-1.7-0.9c-1.8-0.2-4.4-0.4-7.6-0.5c0.7-1.1,1.4-2,2.1-2.7
				c0.2-0.3,0.2-0.7-0.1-1.3c-0.3-0.6-0.7-1.2-1.4-1.8c-0.6-0.6-1.2-1-1.8-1.2c-0.6-0.2-1-0.2-1.2,0c-1.4,1.7-3.1,4-4.9,7
				c-2.5,0-4.9,0.1-7.2,0.2c-2.5,0.1-4.4,0.3-6,0.5c-0.9,0.1-1.6,0.3-2.1,0.6c-0.5,0.3-0.7,0.6-0.7,1c0,0.1,0,0.1,0,0.2
				c0,0.1,0,0.1,0,0.2c0.1,0.6,0.5,1.2,1,1.8c0.5,0.6,1.1,1.1,1.8,1.6c0.6,0.3,1.1,0.5,1.4,0.4c0.4-0.1,0.5-0.3,0.5-0.7
				c0,0,0.2,0,0.5-0.1c0.3-0.1,0.8-0.1,1.4-0.3c1.5-0.2,3.4-0.4,5.7-0.5c0.2,0,0.5,0,0.7,0c-2,3.5-3.8,7.2-5.6,11.1
				c-0.7,1.4-1.4,3-2,4.8c-0.3,0.8-0.7,1.6-1,2.4c-0.2,0.6-0.4,1.1-0.5,1.6c-1.1,1.4-2.2,2.8-3.4,4.1c-1.6,1.8-3.2,3.3-5,4.6
				c-1.7,1.3-3.6,2.1-5.5,2.6c-1.3,0.3-2.3,0.2-3-0.1c-0.7-0.3-1.3-0.8-1.6-1.5c-0.3-0.7-0.4-1.5-0.4-2.5c0-0.9,0.1-1.9,0.4-2.8
				c0.5-1.7,1.1-3.5,1.9-5.2c0.3,0.4,0.7,0.8,1.1,1.2c1.5,1.3,2.9,2.2,4.1,2.6c1.3,0.4,2.4,0.4,3.5,0.1c1.2-0.4,2.2-1.1,3.2-2.1
				c0.9-1,1.7-2.2,2.3-3.5c0.5-1.1,1-2.2,1.3-3.4c0.3-1.2,0.4-2.3,0.4-3.4c-0.1-0.6-0.2-1.1-0.4-1.6c-0.2-0.5-0.5-0.9-0.8-1.3
				c-0.5-0.6-1-1.1-1.6-1.6c-0.6-0.4-1.1-0.7-1.6-0.8l-0.1-0.1c-0.7-0.6-1.4-1-2.2-1.3c-0.6-0.3-1.2-0.4-1.9-0.5
				c-1.3-0.1-2.7,0.3-4,1.2c-1.3,0.8-2.6,2-3.8,3.4c-1.2,1.4-2.3,3.1-3.2,4.8c-1.3,2.5-2.4,5-3,7.6c-0.3,1.3-0.6,2.5-0.7,3.7
				c-0.1,1.2-0.1,2.3,0.1,3.3c0.2,0.9,0.4,1.8,0.8,2.5c0.4,0.8,0.8,1.5,1.4,2.1c0.6,0.7,1.3,1.4,2.2,2c1.3,0.8,2.5,1.2,3.9,1.2
				c1.3,0,2.7-0.3,4-0.9c1.3-0.6,2.7-1.5,4-2.5c1.3-1.1,2.6-2.3,3.8-3.6c0.7-0.7,1.3-1.5,2-2.3c0,0,0,0,0,0c-0.3,1.6-0.3,3,0,4
				c0.3,1.1,0.9,2,1.8,2.8c0.8,0.8,1.8,1.3,2.8,1.5c0.4,0.1,0.7,0,1.2-0.3c1.4-0.9,2.9-2.5,4.5-4.8c1.6-2.3,3.1-4.9,4.5-7.8
				c1.5-2.9,2.8-5.8,3.9-8.7c0.6-1.5,1.1-2.9,1.6-4.1h6.4c-1.5,3-3,6.3-4.3,9.8c-0.5,1.4-1,2.8-1.3,4.1s-0.7,2.5-0.9,3.6
				c-0.3,1.6-0.3,3,0,4c0.3,1.1,0.9,2,1.7,2.8c0.6,0.7,1.4,1.1,2.2,1.3c-4.8,1.7-9.1,3.8-12.7,5.5c0,0-16.6,7.5-29.4,2.3
				c-2.7-1.2-4.7-2.4-7-7.4c-1-2.3-2.3-4.9-3-6.9c-2.1-5.8-4-9.8-6-12.8c2.9-1.3,5.8-2.8,8.7-4.6c3-1.9,5.8-3.9,8.4-6.1
				c0.8-0.7,1.6-1.4,2.5-2.3s1.7-1.8,2.5-2.8c0.8-1,1.5-2.1,2-3.2c0.5-1.1,0.8-2.2,1-3.4c0.1-1.2-0.1-2.3-0.6-3.6
				c-0.8-1.8-1.9-3.3-3.2-4.5c-1.4-1.2-2.9-2.1-4.8-2.7c-1.8-0.6-3.8-1-5.9-1.1c-2.5-0.1-5.2,0.1-8.1,0.7c-2.9,0.6-5.7,1.4-8.5,2.5
				c-0.1,0.1-0.3,0.1-0.6,0.2c-2.7,1.2-5.3,2.6-7.8,4.2c-2.7,1.7-5.1,3.7-7.3,5.7c-1.2,1.1-2.3,2.3-3.3,3.5h8.4v0.5
				c2-1.8,4.2-3.5,6.6-5.1c2.5-1.6,5-3,7.6-4.1c0.1,0,0.1,0,0.2-0.1c0.1,0,0.2-0.1,0.4-0.2c2.7-1.1,5.4-1.9,8.2-2.4
				c2.7-0.5,5.3-0.8,7.7-0.7c1.7,0.1,3.1,0.2,4.2,0.5c1.1,0.3,1.7,0.7,2,1.2l0.1,0l0,0.1l0,0.1c0.3,1.1,0.2,2.4-0.4,3.7
				c-0.6,1.4-1.5,2.8-2.7,4.2c-1.2,1.5-2.7,3-4.5,4.4c-2.7,2.3-5.6,4.4-8.9,6.3c-3.2,1.9-6.3,3.5-9.4,4.8c-0.3,0.1-0.7,0.3-1,0.4
				c1.2-2.2,2.4-4.4,3.6-6.4c1.8-3,3.4-5.3,4.7-6.9c0.2-0.3,0.2-0.7-0.1-1.3c-0.3-0.6-0.7-1.2-1.4-1.8c-0.6-0.6-1.2-1-1.8-1.3
				c-0.6-0.2-1-0.2-1.3,0c-1.4,1.6-3,3.9-4.8,7c-1.8,3.1-3.7,6.4-5.5,10c-1.7,3.4-3.1,6.6-4.3,9.7l0,0c0,0.1-0.1,0.2-0.1,0.3
				c0,0.1-0.1,0.2-0.1,0.3c-0.5,1.3-0.9,2.6-1.2,3.8c-0.1,0.4-0.2,0.8-0.3,1.1c-0.7,2.6-1.2,5-1.3,7c-0.3,8.8,5.3,10.9,6.7,11
				c0.1,0,0.3-0.2,0.1-0.4c-2-4.7-1.2-11.2,0.4-17.8c0.1-0.2,0.1-0.4,0.2-0.6c1.2-3.3,2.7-6.7,4.5-10.3c0-0.1,0.1-0.2,0.1-0.3
				c0.1,0.1,0.1,0.2,0.2,0.2c0.1,0.2,0.3,0.3,0.4,0.4c1.7,5.1,5.8,11.8,8.8,17.5c2.5,4.9,4.3,7.4,4.3,7.4c3.6,5.2,6.5,7.2,9.8,8.7
				c15.6,7.3,35.6-1.7,35.6-1.7c13.3-5,29.2-7.9,39.3,4.3c0.2,0.3,0.7,0.3,0.8,0C200.4,80.7,203.2,68.2,189.3,64.8z M128.5,49.5
				c0.9-1.7,1.9-3.2,3-4.6c1.1-1.4,2.2-2.4,3.4-3.2c1.2-0.8,2.3-1.1,3.4-1.1c0,0,0.1,0,0.2,0c0.1,0,0.1,0,0.2,0
				c0,0.6-0.2,1.3-0.4,2.2c-0.3,0.9-0.6,1.8-1.1,2.8c-0.6,1.2-1.3,2.3-2.1,3.2c-0.8,0.9-1.7,1.5-2.7,1.9c-0.5,0.2-1,0.2-1.4,0.2
				s-0.8-0.2-1.1-0.5C129.3,50.1,128.9,49.8,128.5,49.5L128.5,49.5z M169,65.9c0.3-0.3,0.6-0.7,1-1.2c0.8-1,1.7-2.2,2.6-3.6
				c0.7-1,1.3-2,2-3c0.1,1,0.3,1.9,0.7,2.9c0.4,1.2,1.1,2.3,1.9,3.3C174.3,64.6,171.6,65.2,169,65.9z M188.6,55.9
				c-1.6,2.5-3.5,4.5-5.5,5.9c-0.7,0.4-1.3,0.8-2,1c-0.6,0.2-1.2,0.3-1.6,0.2c-0.2-0.7-0.3-1.9-0.2-3.6c0.2-2.5,0.8-5.1,2-7.8
				c1.2-2.7,2.7-5.1,4.5-7.1c1.2-1.4,2.5-2.5,3.8-3.2c0.1,0,0.1,0.1,0.2,0.1c0.1,0.1,0.1,0.1,0.2,0.2c0.8,0.6,1.3,1.3,1.6,2.2
				c0.3,0.8,0.5,1.7,0.5,2.7c-0.1,1.3-0.3,2.7-0.8,4.1c-0.5,1.4-1.1,2.7-1.9,4c-0.1,0.1-0.1,0.1-0.1,0.2
				C189,55.2,188.8,55.6,188.6,55.9z"/>
			<path fill="#CC0A39" d="M78.3,45.9c0,0,2.3,4.2,6.3,5.4c4,1.2-0.3-0.7-1.1-2.1c-0.8-1.4-2-3.9-1-6.1L78.3,45.9z"/>
		</g>
	</g>
</g>
<g>
	<g>
		<polygon fill="none" points="91.6,32.8 91.6,30 81.9,30 81.9,32.8 82.6,33.6 82.6,46.1 84.2,48.9 82.6,46.1 82.6,60.9 81.9,61.7 
			81.9,64.5 91.6,64.5 91.6,61.7 90.8,60.9 90.8,47.8 90.3,48.3 90.8,47.8 90.8,33.6 		"/>
		<polygon points="82.6,33.6 81.9,32.8 81.9,30 91.6,30 91.6,32.8 90.8,33.6 90.8,47.8 91.7,46.7 91.7,34 92.2,33.4 92.4,33.2 
			92.4,32.8 92.4,30 92.4,29.1 91.6,29.1 81.9,29.1 81,29.1 81,30 81,32.8 81,33.2 81.2,33.4 81.8,34 81.8,44.6 82.6,46.1 		"/>
	</g>
	<path d="M81.8,44.3c0,0,0.1,2.1,1.8,4.9c0.8,1.2,2.7,2.5,2.7,2.5s-1.9-0.3-4-1.5v1.2c0,0,2.7,1.2,4.7,1s-0.4-1.1-2.3-3
		c-1.9-2-2.2-5.4-2.2-5.4L81.8,44.3z"/>
</g>
<path d="M194.9,36.5c0,0,3.2,2.3,3.1,4.9s-2.3,1.1-2.3,1.1s1.7,1.6,2.3,5.3c0.7,4.1-0.8,8.7-3,12.2l-0.6-2.1c0,0,1.9-4,2.2-6.8
	c0.4-2.8-0.9-6.7-2.5-8.8c-1.6-2.1-0.1-1.9-0.1-1.9l0.5,0.2c0,0,1.4,1.2,2.3,0.9c0.9-0.3-0.6-3.1-2.7-4.4S194.9,36.5,194.9,36.5z"/>
</svg>
